<svg xmlns="http://www.w3.org/2000/svg" version="1.1" xmlns:xlink="http://www.w3.org/1999/xlink" width="2000" height="1500" viewBox="0 0 2000 1500"><svg xml:space="preserve" width="1500" height="1125" data-version="2" data-id="lg_u9RifgtkLTIHoUGP8x" viewBox="0 0 571 130" x="250" y="187.5"><rect width="589.56" height="133.94" x="-294.78" y="-66.97" fill="#0052de" rx="0" ry="0" transform="translate(285.5 65)scale(.9499)"></rect><path fill="#fff" d="M184.429 39.2q0-1.62 1.58-1.62h6.6q1.58 0 1.58 1.58 0 6.9.06 13.81.06 6.9.06 13.81 0 3.74-.02 7.54t-.02 7.58q0 .46.46.46h21.18q1.54 0 1.58 1.54l.11 6.14q.08 1.62-1.58 1.62h-30.05q-1.58 0-1.58-1.62 0-2.13.06-4.23.06-2.1.1-4.22.11-8.87.11-17.71 0-6.21-.11-12.36-.12-6.15-.12-12.32" paint-order="stroke"></path><rect width="33.24" height="54.08" x="-16.62" y="-27.04" fill="none" rx="0" ry="0" transform="translate(201.5 65.12)"></rect><path fill="#fff" d="M253.479 91.66q-1.35 0-1.58-1.39-.12-.77-.22-1.56-.09-.8-.17-1.57 0-.11-.08-.4-.07-.29-.27-.29-.15 0-.32.17-.18.18-.26.29-2.54 2.93-6.19 4.21-3.64 1.27-7.46 1.27-3.12 0-6.04-1.1-2.91-1.1-4.78-3.38-1.87-2.27-1.87-5.78 0-4.48.06-8.97.05-4.49.05-8.93v-5.98q0-1.58 1.59-1.58h5.94q1.58 0 1.58 1.58v6.06q0 3.62-.04 7.29-.04 3.66 0 7.33.08 3.04 1.99 4.3 1.91 1.25 4.68 1.25 3.47 0 5.9-1.85t3.73-4.76q1.29-2.92 1.29-6.08V58.25q0-1.58 1.58-1.58h5.9q1.58 0 1.58 1.58 0 1.66-.02 3.32-.01 1.66-.01 3.32 0 4.24.05 8.52.06 4.28.1 8.53.04 2 .1 4.03.05 2.02.05 4.07 0 1.62-1.58 1.62Z" paint-order="stroke"></path><rect width="36.1" height="35.72" x="-18.05" y="-17.86" fill="none" rx="0" ry="0" transform="translate(242.79 75.03)"></rect><path fill="#fff" d="M274.729 56.67q1.43 0 1.58 1.39.12.77.2 1.54.07.77.15 1.54 0 .08.08.45.08.36.27.36t.36-.23q.18-.23.26-.34 2.31-2.97 5.63-4.29 3.31-1.31 6.98-1.31 3.01 0 5.53 1.26 2.53 1.25 4.07 3.54 1.55 2.3 1.55 5.46 0 5.98.13 12 .14 6.02.14 12 0 1.62-1.58 1.62h-6.06q-1.47 0-1.58-1.59-.12-1.65-.08-3.33.04-1.68 0-3.34-.04-3.55-.04-7.06v-7.02q0-2.74-1.58-4.11t-4.2-1.37q-3.28 0-5.39 2.01-2.1 2.01-3.12 4.94-1.02 2.93-1.02 5.75 0 3.39-.04 6.77l-.08 6.76q0 1.59-1.58 1.59h-6.06q-1.58 0-1.58-1.62 0-2.16.06-4.3.06-2.15.1-4.27.11-9.02.11-18.05v-5.17q0-1.58 1.58-1.58Z" paint-order="stroke"></path><rect width="33.99" height="35.88" x="-17" y="-17.94" fill="none" rx="0" ry="0" transform="translate(285.16 74.22)"></rect><path fill="#fff" d="M322.799 92.39q-5.02 0-8.41-2.39-3.4-2.39-5.11-6.35-1.72-3.95-1.72-8.58v-.62q.08-4.86 2.02-9.14 1.95-4.28 5.66-6.92 3.7-2.65 8.94-2.65 3.24 0 6.04 1.22 2.8 1.21 5.23 3.3.27.27.46.27.46 0 .44-.97-.01-.96.27-1.93.29-.96 1.53-.96h5.44q1.58 0 1.58 1.58 0 1.66-.02 3.32t-.02 3.32q0 4.24.06 8.52.06 4.28.09 8.53.04 2 .1 4.03.06 2.02.06 4.07 0 1.62-1.58 1.62h-6.06q-1.04 0-1.35-.68-.31-.67-.27-1.6.04-.93 0-1.66 0-.11-.04-.38t-.23-.27q-.15 0-.29.11-.13.12-.25.19-2.7 2.28-5.82 3.65-3.13 1.37-6.75 1.37m3.93-8.22q2.74 0 5.07-1.13 2.34-1.14 3.65-3.61.08-.16.36-.79.29-.64.29-.79 0-1.35-.02-2.7-.01-1.35-.01-2.66 0-.62.03-1.37.04-.76-.03-1.34-.04-.27-.29-.81-.25-.54-.37-.77-1.35-2.43-3.82-3.62-2.47-1.2-5.17-1.2-2.85 0-5.01 1.43-2.16 1.43-3.38 3.76-1.21 2.33-1.21 5.11 0 2.78 1.27 5.17t3.53 3.86q2.26 1.46 5.11 1.46" paint-order="stroke"></path><rect width="37.88" height="36.65" x="-18.94" y="-18.32" fill="none" rx="0" ry="0" transform="translate(327 74.56)"></rect><path fill="#fff" d="M400.639 40.39q0 .19-.27 1.43-.27 1.23-.56 2.49-.29 1.25-.41 1.52-.15.54-.42.95-.27.4-.93.4-.42 0-.92-.19-1.47-.5-2.95-.83-1.49-.33-3.07-.33-1.93 0-3.84.54t-3.18 1.85q-1.27 1.31-1.27 3.63 0 2.89 1.46 4.76 1.47 1.87 3.76 3.2 2.3 1.33 4.88 2.63 2.59 1.29 4.88 3.04 2.3 1.76 3.76 4.42 1.47 2.66 1.47 6.83 0 5.71-2.7 9.1-2.7 3.4-7.1 4.9-4.4 1.51-9.45 1.51-1.5 0-3.57-.18-2.06-.17-4.09-.54-2.02-.37-3.41-.91-.46-.19-.77-.46t-.31-.85q0-.23.31-1.52t.66-2.6q.34-1.32.42-1.62.19-.54.44-.89t.91-.35q.39 0 .73.12 1.89.54 3.84.92 1.95.39 3.92.39 2.43 0 4.68-.68 2.26-.67 3.71-2.29 1.44-1.62 1.44-4.44 0-3.2-1.5-5.15-1.51-1.95-3.86-3.28-2.35-1.33-4.99-2.54-2.65-1.22-5-2.84-2.35-1.62-3.86-4.2-1.5-2.59-1.5-6.71 0-5.13 2.43-8.28 2.43-3.14 6.4-4.61 3.97-1.46 8.53-1.46 2.27 0 5.24.42 2.97.43 5.06 1.35.46.19.73.48.27.29.27.87" paint-order="stroke"></path><rect width="31.4" height="54.97" x="-15.7" y="-27.48" fill="none" rx="0" ry="0" transform="translate(387.83 65.25)"></rect><path fill="#fff" d="M409.279 43.52q0-2.13 1.58-3.65t3.7-1.52q2.16 0 3.8 1.56 1.64 1.56 1.64 3.76 0 2.12-1.56 3.68-1.56 1.57-3.72 1.57-2.2 0-3.82-1.6-1.62-1.61-1.62-3.8m.58 23.26v-8.53q0-1.58 1.58-1.58h5.94q1.58 0 1.58 1.58 0 7.95.04 15.91.04 7.97.04 15.91 0 1.59-1.58 1.59h-6.1q-1.58 0-1.58-1.59 0-5.82.04-11.64.04-5.83.04-11.65" paint-order="stroke"></path><rect width="10.72" height="53.31" x="-5.36" y="-26.66" fill="none" rx="0" ry="0" transform="translate(415.14 65.5)"></rect><path fill="#fff" d="M430.919 56.13q0-3.32-.04-6.62-.04-3.29-.04-6.57 0-1.58 1.58-1.58h6.06q1.58 0 1.58 1.58 0 3.28-.02 6.57-.02 3.3-.02 6.62 0 .46.5.46h6.06q1.58 0 1.58 1.58 0 1.2-.02 2.41-.02 1.22-.02 2.45 0 1.59-1.58 1.59h-6.02q-.5 0-.5.46 0 6.25.04 12.5t.04 12.49q0 1.59-1.58 1.59h-6.13q-1.59 0-1.59-1.59 0-6.24.06-12.49t.06-12.5q0-.58-.81-.56-.81.02-1.85.13-1.04.12-1.85-.15t-.81-1.47v-4.86q0-1.58 1.58-1.58h3.24q.5 0 .5-.46" paint-order="stroke"></path><rect width="22.56" height="50.3" x="-11.28" y="-25.15" fill="none" rx="0" ry="0" transform="translate(437.38 67.01)"></rect><path fill="#fff" d="M470.999 92.58q-5.63 0-9.82-2.24-4.18-2.23-6.5-6.36-2.31-4.13-2.31-9.8 0-5.28 2.2-9.49 2.19-4.2 6.21-6.65 4.01-2.45 9.41-2.45 6.67 0 10.47 3.74 3.8 3.74 5.15 9.95.04.12.04.39 0 .58-.29.87-.29.29-.75.48-1.31.62-2.78 1.08-1.47.46-2.85 1-4.05 1.51-8.14 2.95-4.09 1.45-8.1 3.07-.31.15-.31.39 0 .11.07.27 1.55 2.77 4.25 4.12t5.78 1.35q2.43 0 4.54-.77 2.1-.77 4.14-1.93.27-.15.54-.27.27-.11.54-.11.54 0 .83.33.29.32.48.75.16.27.6 1.21.45.95.85 1.89.41.95.41 1.22 0 .42-.24.69-.23.27-.54.5-2.73 1.89-6.65 2.86-3.91.96-7.23.96m-9.68-18.78q3.89-1.35 7.79-2.7 3.89-1.35 7.75-2.7-.96-2.13-2.68-3.71-1.72-1.58-4.22-1.58-2.94 0-4.86 1.58-1.93 1.58-2.86 4.03-.92 2.45-.92 5.08" paint-order="stroke"></path><rect width="33.48" height="36.99" x="-16.74" y="-18.5" fill="none" rx="0" ry="0" transform="translate(469.6 74.58)"></rect><path fill="#fff" d="M499.199 92.66q-2.2 0-4.59-.81-2.4-.81-3.98-2.43-.46-.46-.46-1 0-.24.25-1.18.25-.95.56-1.95.31-1 .39-1.31.15-.46.42-.91.27-.44.85-.44.73 0 2.27.96 1.55.97 3.55.97 3.51 0 3.51-3.4 0-2.19-1.4-3.04-1.41-.85-3.03-1.7-3.24-1.74-4.94-4.24-1.7-2.51-1.7-6.25 0-4.75 2.8-7.41t7.46-2.66q.58 0 1.8.15 1.21.16 2.52.49 1.31.32 2.24.88.93.56.93 1.33 0 .74-.31 1.6-.31.87-.5 1.61-.16.5-.43.96-.27.46-.92.46-.81 0-1.74-.42-.93-.43-2.01-.43-1.46 0-2.58.87t-1.12 2.45q0 1.81 1.1 2.82 1.1 1 2.72 1.77t3.24 1.89q1.62 1.12 2.72 3.11 1.1 1.98 1.1 5.46 0 4.93-2.76 8.37-2.76 3.43-7.96 3.43" paint-order="stroke"></path><rect width="19.75" height="36.8" x="-9.88" y="-18.4" fill="none" rx="0" ry="0" transform="translate(500.54 74.76)"></rect><rect width="120.97" height="120.97" x="-60.48" y="-60.48" fill="#fff" rx="0" ry="0" transform="translate(69.05 65)scale(.9499)"></rect><path fill="#0052de" d="M29.214 27.009v79.661h79.662V27.01zm71.695 7.966V48.06H37.18V34.975zm0 63.73H58.091V56.026h42.818zm-63.73 0V56.026h12.946v42.677z"></path></svg></svg>