<?xml version="1.0" encoding="UTF-8"?>
<!DOCTYPE svg PUBLIC "-//W3C//DTD SVG 1.1//EN" "http://www.w3.org/Graphics/SVG/1.1/DTD/svg11.dtd">
<!-- Creator: CorelDRAW -->
<svg xmlns="http://www.w3.org/2000/svg" xml:space="preserve" width="301px" height="65px" version="1.1" style="shape-rendering:geometricPrecision; text-rendering:geometricPrecision; image-rendering:optimizeQuality; fill-rule:evenodd; clip-rule:evenodd"
viewBox="0 0 302.12 65.223"
 xmlns:xlink="http://www.w3.org/1999/xlink"
 xmlns:xodm="http://www.corel.com/coreldraw/odm/2003">
 <defs>
  <style type="text/css">
   <![CDATA[
    .fil1 {fill:url(#id0)}
    .fil0 {fill:url(#id1);fill-rule:nonzero}
   ]]>
  </style>
  <linearGradient id="id0" gradientUnits="userSpaceOnUse" x1="0" y1="32.611" x2="32.611" y2="32.611">
   <stop offset="0" style="stop-opacity:1; stop-color:#FFCF5E"/>
   <stop offset="1" style="stop-opacity:1; stop-color:#F5B400"/>
  </linearGradient>
  <linearGradient id="id1" gradientUnits="userSpaceOnUse" x1="32.611" y1="32.996" x2="302.12" y2="32.996">
   <stop offset="0" style="stop-opacity:1; stop-color:#5A318F"/>
   <stop offset="1" style="stop-opacity:1; stop-color:#D920B7"/>
  </linearGradient>
 </defs>
 <g id="Layer_x0020_1">
  <metadata id="CorelCorpID_0Corel-Layer"/>
  <g id="_2246238252016">
   <path class="fil0" d="M92.325 16.995l7.838 0 0 30.379 -7.838 0 0 -3.403c-1.904,2.836 -4.921,4.253 -9.053,4.253 -3.321,0 -6.065,-1.113 -8.232,-3.341 -2.167,-2.228 -3.251,-5.306 -3.251,-9.235l0 -18.653 7.838 0 0 17.681c0,2.025 0.547,3.574 1.64,4.648 1.094,1.073 2.552,1.61 4.375,1.61 2.025,0 3.645,-0.628 4.86,-1.884 1.216,-1.256 1.823,-3.139 1.823,-5.65l0 -16.405zm31.898 -0.85c3.321,0 6.065,1.113 8.233,3.341 2.167,2.228 3.25,5.306 3.25,9.235l0 18.653 -7.838 0 0 -17.681c0,-2.025 -0.546,-3.574 -1.64,-4.647 -1.094,-1.074 -2.552,-1.611 -4.375,-1.611 -2.025,0 -3.645,0.628 -4.86,1.884 -1.215,1.256 -1.823,3.139 -1.823,5.65l0 16.405 -7.838 0 0 -30.379 7.838 0 0 3.403c1.904,-2.836 4.921,-4.253 9.053,-4.253zm41.254 0.85l7.838 0 0 30.379 -7.838 0 0 -3.585c-2.349,2.957 -5.65,4.435 -9.903,4.435 -4.051,0 -7.524,-1.549 -10.42,-4.647 -2.896,-3.099 -4.344,-6.896 -4.344,-11.393 0,-4.496 1.448,-8.293 4.344,-11.391 2.896,-3.099 6.369,-4.648 10.42,-4.648 4.253,0 7.554,1.478 9.903,4.435l0 -3.585zm-14.46 21.356c1.58,1.6 3.585,2.4 6.015,2.4 2.43,0 4.445,-0.8 6.045,-2.4 1.6,-1.6 2.4,-3.655 2.4,-6.167 0,-2.511 -0.8,-4.566 -2.4,-6.166 -1.6,-1.6 -3.615,-2.4 -6.045,-2.4 -2.43,0 -4.435,0.8 -6.015,2.4 -1.58,1.6 -2.37,3.655 -2.37,6.166 0,2.512 0.79,4.567 2.37,6.167zm36.394 -12.728c0,0.81 0.536,1.468 1.61,1.974 1.073,0.507 2.379,0.952 3.919,1.337 1.539,0.385 3.078,0.871 4.617,1.458 1.539,0.588 2.846,1.57 3.919,2.947 1.073,1.377 1.61,3.098 1.61,5.164 0,3.119 -1.165,5.519 -3.494,7.2 -2.329,1.681 -5.235,2.521 -8.718,2.521 -6.238,0 -10.491,-2.41 -12.759,-7.23l6.805 -3.827c0.891,2.632 2.875,3.949 5.954,3.949 2.795,0 4.192,-0.871 4.192,-2.613 0,-0.81 -0.537,-1.468 -1.61,-1.974 -1.073,-0.507 -2.38,-0.962 -3.919,-1.367 -1.539,-0.405 -3.078,-0.912 -4.617,-1.519 -1.54,-0.608 -2.846,-1.57 -3.919,-2.886 -1.074,-1.317 -1.61,-2.967 -1.61,-4.952 0,-2.997 1.103,-5.357 3.311,-7.078 2.207,-1.722 4.952,-2.582 8.233,-2.582 2.47,0 4.718,0.557 6.744,1.67 2.025,1.114 3.625,2.704 4.8,4.77l-6.684 3.645c-0.972,-2.065 -2.592,-3.098 -4.86,-3.098 -1.013,0 -1.853,0.222 -2.522,0.668 -0.668,0.446 -1.002,1.053 -1.002,1.823zm24.606 -12.273c-1.296,0 -2.42,-0.476 -3.372,-1.428 -0.952,-0.952 -1.428,-2.076 -1.428,-3.372 0,-1.296 0.476,-2.43 1.428,-3.403 0.952,-0.972 2.076,-1.458 3.372,-1.458 1.337,0 2.481,0.486 3.433,1.458 0.952,0.973 1.428,2.107 1.428,3.403 0,1.296 -0.476,2.42 -1.428,3.372 -0.952,0.952 -2.096,1.428 -3.433,1.428zm-3.888 34.024l0 -30.379 7.838 0 0 30.379 -7.838 0zm32.384 -22.845l-6.866 0 0 12.638c0,1.053 0.263,1.822 0.79,2.308 0.526,0.486 1.296,0.76 2.308,0.821 1.013,0.06 2.269,0.05 3.768,-0.031l0 7.109c-5.388,0.607 -9.185,0.101 -11.393,-1.519 -2.207,-1.62 -3.311,-4.516 -3.311,-8.688l0 -12.638 -5.286 0 0 -7.534 5.286 0 0 -6.136 7.838 -2.37 0 8.506 6.866 0 0 7.534zm11.239 10.876c1.054,3.807 3.909,5.711 8.567,5.711 2.998,0 5.266,-1.013 6.805,-3.038l6.319 3.645c-2.997,4.334 -7.412,6.501 -13.245,6.501 -5.023,0 -9.053,-1.518 -12.091,-4.556 -3.038,-3.038 -4.557,-6.866 -4.557,-11.484 0,-4.577 1.499,-8.394 4.496,-11.452 2.998,-3.058 6.846,-4.587 11.544,-4.587 4.456,0 8.132,1.539 11.028,4.617 2.896,3.078 4.344,6.886 4.344,11.422 0,1.013 -0.101,2.086 -0.304,3.221l-22.906 0zm-0.121 -6.076l15.493 0c-0.445,-2.066 -1.367,-3.605 -2.764,-4.618 -1.398,-1.012 -2.987,-1.519 -4.77,-1.519 -2.106,0 -3.848,0.537 -5.225,1.611 -1.377,1.073 -2.288,2.582 -2.734,4.526zm34.814 -3.706c0,0.81 0.537,1.468 1.61,1.974 1.074,0.507 2.38,0.952 3.919,1.337 1.539,0.385 3.078,0.871 4.618,1.458 1.539,0.588 2.845,1.57 3.918,2.947 1.074,1.377 1.61,3.098 1.61,5.164 0,3.119 -1.164,5.519 -3.493,7.2 -2.329,1.681 -5.235,2.521 -8.719,2.521 -6.237,0 -10.49,-2.41 -12.759,-7.23l6.805 -3.827c0.891,2.632 2.876,3.949 5.954,3.949 2.795,0 4.193,-0.871 4.193,-2.613 0,-0.81 -0.537,-1.468 -1.611,-1.974 -1.073,-0.507 -2.379,-0.962 -3.918,-1.367 -1.54,-0.405 -3.079,-0.912 -4.618,-1.519 -1.539,-0.608 -2.846,-1.57 -3.919,-2.886 -1.073,-1.317 -1.61,-2.967 -1.61,-4.952 0,-2.997 1.104,-5.357 3.311,-7.078 2.208,-1.722 4.952,-2.582 8.233,-2.582 2.471,0 4.719,0.557 6.744,1.67 2.025,1.114 3.625,2.704 4.8,4.77l-6.683 3.645c-0.973,-2.065 -2.593,-3.098 -4.861,-3.098 -1.013,0 -1.853,0.222 -2.521,0.668 -0.669,0.446 -1.003,1.053 -1.003,1.823zm-253.834 39.6c12.355,0 23.104,-6.87 28.637,-16.999l-28.637 0 0 16.999zm31.398 -23.771c0.79,-2.811 1.214,-5.776 1.214,-8.841 0,-15.586 -10.935,-28.616 -25.551,-31.842l0 40.683 24.337 0z"/>
   <path class="fil1" d="M32.611 65.223c-18.01,0 -32.611,-14.601 -32.611,-32.612 0,-18.01 14.601,-32.611 32.611,-32.611l0 65.223z"/>
  </g>
 </g>
</svg>
